#!OML:ASF F:\VICON\USERDATA\INSTALL\rory3\rory3.ASF
:FULLY-SPECIFIED
:DEGREES
183
root 0.915301 19.4859 -16.9209 5.98536 -1.35977 1.51167
lowerback 14.0193 1.24081 -0.198865
upperback 1.78936 1.69256 1.29743
thorax -6.01377 0.845419 1.16096
lowerneck -16.3096 -4.49557 -10.3408
upperneck 3.36296 -4.7987 10.8571
head 4.16233 -1.92481 4.66209
rclavicle -3.97569e-016 -3.97569e-015
rhumerus -48.1877 20.3516 -61.8919
rradius 100.585
rwrist -0.767076
rhand -23.8439 23.9677
rfingers 7.12502
rthumb 2.62811 -5.99586
lclavicle -3.97569e-016 -3.97569e-015
lhumerus -19.5792 -10.7212 61.4923
lradius 99.3521
lwrist 5.27
lhand -22.1855 13.9794
lfingers 7.12502
lthumb 4.22967 43.9172
rfemur -15.8531 -0.344722 17.8371
rtibia 23.5531
rfoot 19.8341 -6.86734
rtoes 9.155
lfemur -15.9588 -4.78849 -20.3555
ltibia 22.1316
lfoot 23.5136 8.80511
ltoes 2.74156
184
root 0.914251 19.9029 -16.8086 6.5397 -2.12351 1.57141
lowerback 12.1067 1.39775 -0.192296
upperback 1.43852 1.88995 1.14672
thorax -5.32365 0.943036 0.998329
lowerneck -15.1509 -4.44673 -10.4273
upperneck 4.0234 -4.88714 11.0394
head 4.19871 -1.9901 4.736
rclavicle 2.08724e-014 9.54166e-015
rhumerus -49.2685 20.3588 -63.8427
rradius 96.869
rwrist -2.90291
rhand -25.7327 24.1712
rfingers 7.12502
rthumb 0.8039 -5.80706
lclavicle 2.08724e-014 9.54166e-015
lhumerus -22.3655 -10.4111 62.9304
lradius 97.4358
lwrist 4.68864
lhand -24.2244 14.9018
lfingers 7.12502
lthumb 2.26061 44.8695
rfemur -15.0123 2.40382 17.1301
rtibia 20.2819
rfoot 23.7536 -11.6187
rtoes 14.2237
lfemur -15.9668 -7.61838 -20.1128
ltibia 20.9586
lfoot 27.676 14.1999
ltoes 7.99954
185
root 0.90979 20.3039 -16.7222 7.21435 -2.68659 1.71082
lowerback 10.5138 1.41117 -0.278458
upperback 0.935842 1.89249 1.01891
thorax -4.96253 0.947971 0.942829
lowerneck -14.2311 -4.43293 -10.5699
upperneck 4.98059 -4.99119 10.9879
head 4.35604 -2.06906 4.74277
rclavicle 3.08116e-014 -1.59028e-015
rhumerus -49.944 20.3709 -65.7209
rradius 92.8377
rwrist -4.52884
rhand -27.1146 23.8222
rfingers 7.12502
rthumb -0.530729 -6.15687
lclavicle 3.08116e-014 -1.59028e-015
lhumerus -25.2313 -9.56791 64.4452
lradius 95.5249
lwrist 3.71231
lhand -25.7326 15.7
lfingers 7.12502
lthumb 0.804055 45.6782
rfemur -14.9182 5.39055 16.2866
rtibia 18.0959
rfoot 24.9746 -16.9595
rtoes 25.0374
lfemur -16.3634 -6.28553 -20.4933
ltibia 20.7083
lfoot 25.6103 15.3828
ltoes 12.6406
186
root 0.908071 20.6942 -16.6707 7.94851 -3.03861 1.98338
lowerback 9.06157 1.24367 -0.477763
upperback 0.724545 1.64617 0.936639
thorax -4.36962 0.830736 1.03239
lowerneck -14.4685 -4.47774 -10.8944
upperneck 6.13067 -5.03895 10.9001
head 4.75659 -2.09375 4.76446
rclavicle -5.76476e-015 -1.43125e-014
rhumerus -49.308 20.1943 -67.0968
rradius 88.4847
rwrist -4.84707
rhand -27.496 22.8186
rfingers 7.12502
rthumb -0.899154 -7.15921
lclavicle -5.76476e-015 -1.43125e-014
lhumerus -27.4135 -7.74294 65.9121
lradius 93.5554
lwrist 2.47926
lhand -26.4001 16.2888
lfingers 7.12502
lthumb 0.159308 46.2684
rfemur -14.9651 5.24065 15.9984
rtibia 17.1666
rfoot 22.0378 -16.9599
rtoes 19.7185
lfemur -16.9074 -0.508918 -21.623
ltibia 20.9628
lfoot 23.9315 9.84634
ltoes 8.56055
187
root 0.906907 21.0854 -16.6532 8.56241 -3.14963 2.32058
lowerback 8.01502 0.99172 -0.653337
upperback 0.903453 1.29191 0.841589
thorax -3.59208 0.655017 1.09575
lowerneck -16.0811 -4.62814 -11.2654
upperneck 7.33566 -5.07865 10.838
head 5.40315 -2.07795 4.79381
rclavicle -1.45113e-014 3.97569e-015
rhumerus -47.4978 19.3446 -68.0032
rradius 83.8733
rwrist -4.09807
rhand -27.1729 22.5425
rfingers 7.12502
rthumb -0.587046 -7.43644
lclavicle -1.45113e-014 3.97569e-015
lhumerus -28.5878 -5.34842 67.2648
lradius 91.4621
lwrist 1.52307
lhand -26.9893 16.5148
lfingers 7.12502
lthumb -0.409783 46.4941
rfemur -15.432 4.05899 15.8533
rtibia 17.2144
rfoot 17.9033 -17.8232
rtoes 17.044
lfemur -17.5241 4.3764 -22.7569
ltibia 21.4604
lfoot 24.2197 4.89138
ltoes 2.02189
188
root 0.897223 21.4972 -16.6676 8.71088 -3.09862 2.44554
lowerback 7.944 0.773125 -0.673433
upperback 0.98136 0.99733 0.783928
thorax -3.46358 0.507997 1.0813
lowerneck -16.7653 -4.67075 -11.4947
upperneck 7.88683 -5.04599 10.7999
head 5.68742 -2.05164 4.82119
rclavicle -1.35174e-014 -1.19271e-014
rhumerus -45.8885 17.977 -68.8816
rradius 79.1706
rwrist -2.7091
rhand -25.9094 22.4126
rfingers 7.12502
rthumb 0.633243 -7.56622
lclavicle -1.35174e-014 -1.19271e-014
lhumerus -29.8139 -3.11819 68.6501
lradius 89.302
lwrist 1.11222
lhand -27.188 15.0724
lfingers 7.12502
lthumb -0.601655 45.0513
rfemur -15.8338 2.24598 16.1847
rtibia 17.9989
rfoot 19.9529 -21.8777
rtoes 21.6342
lfemur -17.779 6.75409 -23.2614
ltibia 22.0593
lfoot 32.1952 3.71872
ltoes 14.5211
189
root 0.8763 21.8984 -16.703 8.38863 -3.02854 2.35623
lowerback 8.7262 0.637228 -0.738223
upperback 0.916688 0.811146 0.862775
thorax -3.965 0.419409 1.21238
lowerneck -16.2679 -4.60086 -11.5151
upperneck 7.84245 -4.96558 10.5517
head 5.57533 -2.04488 4.7547
rclavicle -1.59028e-015 -3.97569e-015
rhumerus -44.6923 16.3559 -69.6756
rradius 74.449
rwrist -0.907331
rhand -23.6359 20.6082
rfingers 7.12502
rthumb 2.82895 -9.35274
lclavicle -1.59028e-015 -3.97569e-015
lhumerus -31.2539 -0.9127 70.0525
lradius 87.0252
lwrist 0.709345
lhand -26.8716 13.4341
lfingers 7.12502
lthumb -0.296067 43.4137
rfemur -15.9513 -0.183166 16.9418
rtibia 19.075
rfoot 25.0797 -24.084
rtoes 25.852
lfemur -17.7651 7.41801 -23.184
ltibia 23.0799
lfoot 36.7437 0.735702
ltoes 19.2108
190
root 0.853292 22.2669 -16.7539 7.75814 -3.04914 2.19692
lowerback 10.0115 0.626041 -0.88416
upperback 0.958503 0.781498 1.00415
thorax -4.64247 0.411324 1.43557
lowerneck -15.8863 -4.63282 -11.6071
upperneck 7.84799 -5.00828 10.3751
head 5.51602 -2.09147 4.71008
rclavicle -1.2921e-014 3.18055e-015
rhumerus -43.402 14.2848 -70.2471
rradius 69.4096
rwrist 1.58329
rhand -21.6618 18.0464
rfingers 7.12502
rthumb 4.73539 -11.8806
lclavicle -1.2921e-014 3.18055e-015
lhumerus -32.2695 1.27422 71.3743
lradius 84.5585
lwrist 0.345864
lhand -26.735 13.296
lfingers 7.12502
lthumb -0.164138 43.2756
rfemur -15.9578 -2.6358 17.7506
rtibia 20.5126
rfoot 27.4 -21.4463
rtoes 26.1177
lfemur -17.6372 7.23315 -22.8413
ltibia 24.5489
lfoot 37.9256 -4.16053
ltoes 17.488
191
root 0.843718 22.6174 -16.8131 6.89363 -3.20414 2.10321
lowerback 11.4331 0.724203 -0.842727
upperback 1.09679 0.904903 0.936145
thorax -5.29304 0.472629 1.31216
lowerneck -15.3089 -4.69321 -11.4496
upperneck 7.84884 -5.16326 10.191
head 5.42938 -2.19027 4.61261
rclavicle 1.03368e-014 2.06736e-014
rhumerus -42.1206 11.7035 -70.799
rradius 64.2445
rwrist 4.12526
rhand -20.4885 17.1255
rfingers 7.12502
rthumb 5.86817 -12.7732
lclavicle 1.03368e-014 2.06736e-014
lhumerus -32.8945 3.18482 72.4709
lradius 81.7897
lwrist 0.0988748
lhand -26.4012 13.1649
lfingers 7.12502
lthumb 0.158272 43.1446
rfemur -15.895 -4.48808 18.2701
rtibia 22.325
rfoot 28.5599 -18.1908
rtoes 25.0228
lfemur -17.3778 6.3939 -22.4781
ltibia 26.3639
lfoot 38.2162 -7.08345
ltoes 12.8843
192
root 0.848111 22.953 -16.8766 5.92287 -3.26605 2.10073
lowerback 12.8747 0.91861 -0.502945
upperback 1.20314 1.18224 0.617124
thorax -5.97835 0.597972 0.723176
lowerneck -14.0761 -4.82244 -10.9235
upperneck 7.5454 -5.53151 10.0068
head 5.15338 -2.39897 4.44083
rclavicle 1.85864e-014 4.77083e-015
rhumerus -41.1413 8.31679 -71.2741
rradius 59.2775
rwrist 6.03544
rhand -19.1539 16.6916
rfingers 7.12502
rthumb 7.1566 -13.1674
lclavicle 1.85864e-014 4.77083e-015
lhumerus -33.3374 4.4302 73.389
lradius 78.847
lwrist 0.0688008
lhand -25.2738 12.0563
lfingers 7.12502
lthumb 1.24716 42.0324
rfemur -15.746 -5.53148 18.4682
rtibia 24.1775
rfoot 29.6194 -15.61
rtoes 23.6033
lfemur -17.227 5.26812 -22.2242
ltibia 28.4997
lfoot 38.8432 -7.7175
ltoes 13.8862
